<?xml version="1.0" encoding="UTF-8"?>
<svg id="Layer_1" data-name="Layer 1" xmlns="http://www.w3.org/2000/svg" viewBox="0 0 1080 1080">
  <defs>
    <style>
      .cls-1 {
        fill: #f48e24;
      }

      .cls-2 {
        fill: #763516;
      }

      .cls-3 {
        fill: #fbfaf9;
      }

      .cls-4 {
        fill: #f48d24;
      }

      .cls-5 {
        fill: #893f15;
      }

      .cls-6 {
        fill: #d8a573;
      }

      .cls-7 {
        fill: #aacce1;
      }

      .cls-8 {
        fill: #6e311b;
      }

      .cls-9 {
        fill: #693420;
      }

      .cls-10 {
        fill: #7b3713;
      }

      .cls-11 {
        fill: #763615;
      }

      .cls-12 {
        fill: #773f25;
      }

      .cls-13 {
        fill: #d49b65;
      }

      .cls-14 {
        fill: #763b20;
      }

      .cls-15 {
        fill: #69331e;
      }

      .cls-16 {
        fill: #823a13;
      }

      .cls-17 {
        fill: #843c16;
      }

      .cls-18 {
        fill: #80b1d0;
      }

      .cls-19 {
        fill: #c37f52;
      }

      .cls-20 {
        fill: #f48d23;
      }

      .cls-21 {
        fill: #dbcac2;
      }

      .cls-22 {
        fill: #fdfdfd;
      }

      .cls-23 {
        fill: #6a371f;
      }
    </style>
  </defs>
  <path class="cls-8" d="M607.65,755.75c-48.53-1.52-120.72-14.07-138.14-58.35-40.79,26.78-97.18,14.19-135.92-18.26-19.25-16.12-31.74-37.05-34.48-62.4-60.68-33.62-135.36-101.02-130.61-173.1,28.59-6.18,58.15-4.87,84.55,6.36l121.16-93.79c-3.87-29.64,2.85-58.27,21.13-81.41,7.76-9.82,49.79,12.89,69.92,34.6,42.71-14.27,84.48-26.69,130.14-29.02,112.36-5.73,238.68,36.68,294.97,137.4,42.46,75.98,37.06,168.59-20.16,234.56-61.59,71-168.47,106.35-262.56,103.41Z"/>
  <path class="cls-22" d="M522.47,609c6.19,9.78,11.79,20.28,16.81,31.5l-5.36,5.52-27.73-11.56c-16.23-6.77-32.39-3.99-45.19,8.32-8.28-1.48-15.17-1.9-23.47-6.27,20.8-16.92,35.21-33.83,46.46-56.24l38.49,28.72Z"/>
  <path class="cls-3" d="M422.16,635.02l-5.7-24.56,29.26-35.66,28.43,1.07c-11.05,25.85-28.5,44.9-51.99,59.15Z"/>
  <path class="cls-20" d="M472.47,666.95c5.4,16.86-19.48,34.03-53.67,34.44-32.95.39-61.53-12.54-83.44-36.28-10.69-11.58-21.1-23.02-22.21-40.92,30.96,12.94,62.6,18.65,96.45,21.94,27.03,2.62,57.13,2.93,62.87,20.82Z"/>
  <path class="cls-19" d="M421.71,565.95c-3.8.64-6.42-5.45-4.07-9.62l14.46-25.64c1.1-1.95.98-5.21,4.01-5.61,1.84-.24,4.43-.03,5.39,1.92.69,1.39.83,4.84-.58,7.17l-19.22,31.79Z"/>
  <rect class="cls-21" x="397.2" y="583.07" width="47.41" height="5.62" transform="translate(-297.54 520.7) rotate(-49.12)"/>
  <path class="cls-1" d="M445.53,513.65c-28.78-4.53-15.86-29.01-26.66-33.87-3.2-1.44-6.58.62-10.15,3.54l-16.79,13.72c-2.53,2.07-4.24,5.07-4.04,7.19.82,8.63,39.02-.7,38.19,16.09-.69,13.92-13.98,25.27-18.83,37.98l7.94,16.67c-9.43,9.2-18.49,18.09-24.41,31.16,13.81,6.34,22.72,15.47,17.76,30.58-30.66-5.32-61.63-8.11-90.38-21.81-60.62-28.88-131.65-91.06-139.38-162.58,26.39-5.11,51.46-1.14,74.88,11.08l132.61-103.02c-4.42-29.03,1.96-54.81,16.54-78.16,22.81,7.73,40.61,20.23,56.23,36.86,20.12,21.42,42.59,38.14,65.32,56.24,40.08,31.92,53.2,84.37,20.98,116.71-14.42,14.47-22.54,30.46-31.47,48.58-6.07,12.32-18.5,21.47-18.76,39.03-20.87-22.97-44.68-4.21-58.31-27.26l10.07-12.74c2.19-2.77,4.08-5.58,4.23-8.6.15-2.98-2.5-6.45-5.26-10.45,22.49-1.56,35.24-15.34,31.05-25.33-.48-1.14-1.91-2.08-4.29-1.06-4.55,1.96-6.11,22.75-27.09,19.44Z"/>
  <path class="cls-2" d="M307.98,541.12c8.92-14.02,38.17,1.76,42.86-30.23l2.25-5.34c.77-1.82,3.18-2.84,4.75-1.48,1.66,1.44,3.54,4.92,3.15,8.28-2.84,24.66-30.76,38.25-53.01,28.76Z"/>
  <path class="cls-11" d="M422.6,447.74l27.21-8.55c11.02-3.46,10.51-17.57,15.48-29.1,12.02,14.28.59,33.31-14.94,38.61-8.81,3.01-17.14,8.16-27.74-.97Z"/>
  <path class="cls-10" d="M513.1,449.21l-37.7,20.86-2.17-3.85,37.07-24.53c2.57-1.7,5.91.07,6.21,1.46s-.11,4.23-3.41,6.06Z"/>
  <path class="cls-16" d="M382.78,558.22l-17.08,28.55c-2.49,4.16-5.04,8.57-11.62,6.95l21.17-37.58c1.69-2.99,7.15-2.68,7.53,2.08Z"/>
  <path class="cls-17" d="M362.29,551.22l-22.37,18.78c-4.08,3.42-10.53,4.65-11.96.52l29.78-25.34c2.05-1.74,3.93-2.81,5.03-2.33,2.22.97,3.14,5.34-.48,8.38Z"/>
  <path class="cls-5" d="M524.69,473.52l-42.05,9.68c.44-1.88.09-3.78-.24-4.54l43.18-11.92c.75,2.33.39,4.84-.89,6.78Z"/>
  <path class="cls-4" d="M653.18,642.8c7.96-8.09-42.87-26.1-44.7-84.38-.86-27.53,11.49-53.95,33.86-73.64,34.14-30.07,83.06-35.27,126.16-21.27l7.02,1.18c3.22.54,8-6.21,5.35-7.46-42.04-19.89-89.04-15.08-131.59,6.6-7.9-19.54-15.73-39.68-23.48-33.14-1.55,1.31-1.91,2.41-.76,5.81l12.79,37.99c-19.2,15.91-33.83,33.71-39.8,59.85-21.66-8.47-41.37-12.1-65.73-3.66,5.17-13.28,14.5-22.91,23.84-33.8,31.11-36.26,19.42-90.26-12.48-119.49-21.35-19.57-45.4-34.95-65.99-57.99,40.56-19.91,82.69-27.09,126.96-28.51,68.95-2.2,135.08,12.93,193.63,48.15,71.56,43.05,113.24,118.37,106.63,201.97-12.42,157.07-221.53,234.35-369.66,192.51-30.01-8.48-58.26-26.22-51.07-50.84,7.64-26.13,43.39-29.01,74.98-21.72,56.02,12.93,113.34,17.88,170.04,5.57,43.1-9.36,79.29-33.3,110.37-63.08,3.68-3.52,1.23-7.03-.51-8.4-3.48-2.74-6.61-2.28-9.83,1.31-50.67,56.69-120.32,72.19-195.39,66.09l19.34-19.65Z"/>
  <path class="cls-7" d="M533.92,646.02c1.37-8.22-14.09-16.45-11.45-37.02,6.3,4.7,18.98,6.7,22.31,16.7,2.58,7.76,2.26,15.99,8.45,22.34-8.14,2.37-13.14.55-19.31-2.02Z"/>
  <path class="cls-18" d="M517.03,647.59c-11.83,1.41-19.23,6.05-29.17,10.28-4.7,2-16.37-9.67-13.57-14.18,12.04-9.38,31.5-4.35,42.74,3.9Z"/>
  <path class="cls-6" d="M559.57,588.22l-9.05,15.98c-2.11,3.73-3.28,8.65-8.08,7.83-3.21-.55-9.32-2.28-6.87-7.72l2.52-5.6c.65-1.44-3.17-3.95-5.06-4.11-1.63-.14-4.14,3.6-5.01,6.74-6.95,3.16-13.85-5.76-16.58-7.75-7.47-8.64-6.21-17-3.23-26.17,15.8-31.76,54.95-42.88,85.22-22.63,5.34,3.57,4.77,18.75.8,23.05-10.4,5.18-23.08,9.31-30.9,17.5-.86-6.43-3.1-9.54-5.85-10.84-3.45-1.63-8.38,1.41-8.66,5.49-.19,2.7,1.75,7.01,10.75,8.23Z"/>
  <circle class="cls-23" cx="523.45" cy="572.79" r="7.09"/>
  <circle class="cls-14" cx="579.74" cy="554.75" r="7.06"/>
  <circle class="cls-12" cx="549.22" cy="549.64" r="6.85"/>
  <path class="cls-13" d="M621.18,657.66c-8.5,7.21-18.53,1.88-24.08-5.91-6.41,3.9-11.89,4.81-19.29,3.22-14.47-3.1-23.69-11.31-23.25-28.06.63-23.96,19.59-42.29,43.86-47.76,2.31,12.07,5.2,23.19,13.6,31.84l28.96,29.86-19.8,16.81Z"/>
  <circle class="cls-9" cx="588.58" cy="604.18" r="9.76"/>
  <circle class="cls-15" cx="619.02" cy="636.25" r="8.43"/>
</svg>