<?xml version="1.0" encoding="UTF-8"?>
<svg id="Layer_1" data-name="Layer 1" xmlns="http://www.w3.org/2000/svg" viewBox="0 0 1080 1080">
  <defs>
    <style>
      .cls-1 {
        fill: #b3b4be;
      }

      .cls-2 {
        fill: #6a2d1a;
      }

      .cls-3 {
        fill: #a38f86;
      }

      .cls-4 {
        fill: #8f4311;
      }

      .cls-5 {
        fill: #c14b3d;
      }

      .cls-6 {
        fill: #e54d4d;
      }

      .cls-7 {
        fill: #884010;
      }

      .cls-8 {
        fill: #6e3720;
      }

      .cls-9 {
        fill: #f28e25;
      }

      .cls-10 {
        fill: #f38e24;
      }

      .cls-11 {
        fill: #7e3c24;
      }

      .cls-12 {
        fill: #7d3812;
      }

      .cls-13 {
        fill: #e8c972;
      }

      .cls-14 {
        fill: #6b2c18;
      }

      .cls-15 {
        fill: #88746c;
      }

      .cls-16 {
        fill: #907161;
      }

      .cls-17 {
        fill: #a0c3d4;
      }

      .cls-18 {
        fill: #7c3615;
      }

      .cls-19 {
        fill: #dbcec9;
      }

      .cls-20 {
        fill: #893f10;
      }

      .cls-21 {
        fill: #d1966c;
      }

      .cls-22 {
        fill: #7089a4;
      }

      .cls-23 {
        fill: #cab2a9;
      }

      .cls-24 {
        fill: #95bdd2;
      }

      .cls-25 {
        fill: #a7a5ae;
      }

      .cls-26 {
        fill: #a49087;
      }

      .cls-27 {
        fill: #7a3415;
      }

      .cls-28 {
        fill: #faf7f4;
      }

      .cls-29 {
        fill: #da4745;
      }

      .cls-30 {
        fill: #faf8f7;
      }

      .cls-31 {
        fill: #f38d24;
      }

      .cls-32 {
        fill: #974712;
      }

      .cls-33 {
        fill: #866f64;
      }

      .cls-34 {
        fill: #844228;
      }

      .cls-35 {
        fill: #ef5956;
      }

      .cls-36 {
        fill: #f6f2ee;
      }

      .cls-37 {
        fill: #775e4f;
      }

      .cls-38 {
        fill: #7c370e;
      }

      .cls-39 {
        fill: #8fb752;
      }

      .cls-40 {
        fill: #7d3612;
      }

      .cls-41 {
        fill: #edd579;
      }

      .cls-42 {
        fill: #fdfbfb;
      }
    </style>
  </defs>
  <circle class="cls-8" cx="90.86" cy="355.42" r="5.71"/>
  <path class="cls-2" d="M526.99,691.87c-3.44,7.15-4.44,11.6-10.66,16.28-5.26,3.96-5.51,20.05-.59,24.17,3.89,3.26,7.88,5.43,8.69,8.93.67,2.91.36,11.94-4.42,11.95l-168.91.37c-18.99.04-26.05-16.97-25.99-33.33.08-19.05,9.86-32.09,31.22-34.34-10.55-8.62-11.91-19.8-11.14-31.71,1.07-16.55,12.93-27.4,29.58-27.41l75.62-.04c-.03-6.45.95-11.5,4.48-16.75l-9.41-16.85c-6.26-11.21-5.81-26.32,3.56-35.89,6.41-6.54,15.53-8.72,23.56-13.3l-2.96-29.58-41.61.77c-16.66,15.42-47.31,27.8-70.13,18.73l-34.34-74.41c7.33-9.51,10.45-21.44,9.71-31.7l48.7-13.74c4.41,4.13,5.52,7.96,7.77,12.63,14.38,6.88,22.25,18.79,23.1,35.32,12.68,5.34,26.28,4.81,40.1-.86l-27.35-40.97c-6.98-16.07-7.16-33.22-8.11-50.17-10.39-18.56-16.82-38.34-12.14-60.02,22.4-2.46,43.84,4.18,62.93,17.72l80.72-25.62c8.93-20.78,30.09-52.05,45.32-43.4,15.28,15.36,27.41,33.35,32.69,55.05,19.01,21.34,30.36,45.4,41.53,71.37,17.41,40.47,30.19,80.74,33.17,125.08l-.54,37.71c41.63-22.67,36.05-73.49,69.74-86.55,9.99-3.87,21.9-1.82,29.13,3.71,22.71,17.37,4.13,60.05-22.7,83.23-24.24,20.96-53.68,33.34-84.95,39.3-9.85,14.27-13.4,29.92-11.92,47.11,1.18,13.72-5.15,25.21-13.42,37.7l52.55.67c2.49.03,5.26,1.46,6.14,2.81.76,1.16.62,3.84-.64,5.89-5.98,10.6-5.52,23.27,5.43,31.35-8.21,12.34-8.9,23.71.25,38.78l-187.1.81c-9.46-16.37-3.16-32.48,2.94-47.42,2.95-7.22-3.26-25.88,7.94-30.26,21-5.66,44.6-.03,66.48-2.15l-.17-24.6c-9.34-12.22-17.96-23.55-23.82-37.44-31.48.63-59.53-10.41-87.48-10.46,1.04,10.31,1.07,18.8-5.07,26.71,9.86.44,18.58-1.03,27.86,1.57,4.39,1.23,4.94,5.96,4.69,9.49-.35,4.75-3.79,6.13-8.33,9.41-10.38,24.65,7.54,25.73,7.63,34.91.04,4.24-7.65,5.87-9.37,9.46Z"/>
  <path class="cls-10" d="M696.27,578.52c.41-7.14.54-18.5,6.45-21.61,19.34-10.17,33.06-23.59,42.02-44.03,11.05-25.19,24.58-54.63,45.31-43.27,6.43,3.52,11.11,11.29,9.95,20.5-5.82,46.08-59.16,79.24-103.73,88.41Z"/>
  <path class="cls-9" d="M467.65,506.16c-13.9,2.56-27.99,2.59-42.85-.08l-9.21-33.5c15.54,1.38,27.94,1.24,42.33-3.02l9.73,36.6Z"/>
  <path class="cls-24" d="M388.84,527.74c9.92-23.11-17.09-34.25-.94-48.93,4.95-4.5,10.49-8.39,17.31-10.04l11.95,46.31c-8.94,6.06-17.15,9.54-28.32,12.65Z"/>
  <path class="cls-42" d="M375.04,481.71c-7.32,5.31-20.66-1.85-29.46-1.87-5.02-.01-7.93-9.59-7.55-13.6,18.27-3.7,36.26-3.17,52.46-11.44l7.61-3.88c3.06-1.56,4.88,4.09,5.04,6.96.13,2.4-1.54,4.56-4.9,7l-23.2,16.83Z"/>
  <path class="cls-17" d="M382.37,520.69c-1.23,8.82-15.82,10.62-19.52,6.47l-18.47-40.02c8.83-1.67,20.3-2.5,27.59,3.83s11.9,18.9,10.4,29.72Z"/>
  <path class="cls-30" d="M336.34,458.66c1.4-5.35,4.09-14.42,9.12-16.98l36.53-10.41c5.61,3.58,9.57,6.81,13.39,13.68-18.45,8.11-36.55,12.4-59.04,13.71Z"/>
  <path class="cls-36" d="M504.38,710.33l-.74,2.47-120.25.03,119.34-.03,1.66,2.47v2.45c.21,4.06-7.93,4.32-7.78,3.85.13-.42,7.58-1.51,7.78,1.04v2.45s-1.08,2.42-1.08,2.42l-57.67.64c-2.86.03,52.92-.76,57.13-.64.58.02,1.13,1.06,1.67,2.38,0,.88.26,3.7-.72,4.96l-138.65-.32c-4.86-.01-9.94-.88-12.18-3.34-4.16-4.56-4.33-18.41-.08-21.92,1.93-1.59,6.31-3.01,10.37-2.97l136.33,1.52c2.81.03,4.58.97,4.87,2.54Z"/>
  <path class="cls-5" d="M363.93,741.09l147.34-.23c2.4,0,3.4.16,4.33.87.74.56.85,4.21-.12,5.4l-164.71-.6c-14.75-.05-22.59-28.1-12.17-44.29,3.27-5.09,11.04-8.73,19.24-8.74l158.85-.04v4.39s-151.58.65-151.58.65c-7.54.03-13.67,2.01-17.57,5.57-5.46,4.99-6.34,11.1-5.83,18.63.79,11.64,8.92,18.43,22.2,18.41Z"/>
  <polygon class="cls-16" points="504.38 710.33 504.39 715.26 382.07 714.97 382.07 710.67 504.38 710.33"/>
  <path class="cls-33" d="M504.4,725.05l.04,4.81-128.41.07c-.95,0-1.48-1.42-1.29-1.78l69.89-1.79,59.77-1.3Z"/>
  <path class="cls-37" d="M504.39,717.71v4.89s-147.91-.01-147.91-.01c-.97,0-1.47-1.43-1.27-1.77l53.16-1.47c6.24-.17,10.18-1.73,16.43-.5,18.13,3.56,36.48.49,54.65-.12,8.42-.28,17.63,4.87,24.94-1.02Z"/>
  <path class="cls-22" d="M526.62,683.35c-10.43,2.3-22.38,2.07-34.52,1.85l-122.02-2.12c-13.48-.23-17.85-17.74-16.23-28,1.58-9.98,5.24-20.25,16.15-20.29l126.98-.41c11.05-.04,23.14-4.49,33.09,3.73l-157.42,1.95c-8.7.11-11.31,12.62-12.09,18.37-.76,5.64,1.4,19.69,9.6,19.79l97.51,1.17,57.34-.36c2.25.86,1.97,3.45,1.61,4.32Z"/>
  <path class="cls-28" d="M411.43,654.14c34.27-2.07,71.14-2.1,105.18,0v2.44s-.75,2.44-.75,2.44h-142.53s141.62,0,141.62,0l1.65,2.44-.04,2.52-.74,2.84-124.56-.51,123.6.51,1.63,2.85-143.58,1.22c-5.34-4.84-3.83-16.61-.77-21.61,10.38-1.35,29.54-3.37,39.45-.06,1.89.63,1.52,2.83-.17,4.9Z"/>
  <polygon class="cls-26" points="516.61 656.58 516.61 661.47 371.95 661.21 372.01 656.85 516.61 656.58"/>
  <path class="cls-19" d="M516.54,651.66c-34.37.83-69.4,1.66-105.11,2.48-1.75-2.88-4.9-5.15-9.5-5.11l-29.78.27c.73-1.42,2.35-2.63,5.05-2.62l141.32.35c1.76,0,.4,5.77-1.98,4.63Z"/>
  <path class="cls-3" d="M516.57,663.99l2.46,3.78c1.82,2.81-2.08,4.89-2.53,1.91l-127.08-1.28-.02-4.2,127.17-.21Z"/>
  <path class="cls-15" d="M516.54,651.66l.07,2.48h-105.18c-.1-.95.91-2.44,2.66-2.44l102.45-.04Z"/>
  <rect class="cls-39" x="548.33" y="717.27" width="167.11" height="27.96"/>
  <rect class="cls-35" x="586.2" y="680.3" width="99.44" height="29.93" transform="translate(-.91 .84)"/>
  <rect class="cls-6" x="693.4" y="689.15" width="29.37" height="13" transform="translate(9.1053 1400.4462) rotate(-89.73)"/>
  <path class="cls-29" d="M567.9,709.18c-2.67,2.58-8.88,1.38-9.6-1.19-2.08-7.43-1.7-14.68-.13-21.8.97-4.37,5.33-6.49,9.65-4.66l.07,27.65Z"/>
  <rect class="cls-13" x="563.05" y="690.8" width="29.41" height="9.78" transform="translate(-127.0492 1262.2789) rotate(-89.087)"/>
  <rect class="cls-41" x="689.69" y="681.39" width="7.97" height="28.87" transform="translate(-1.81 1.81)"/>
  <path class="cls-23" d="M342.75,432.32l34.4-9.86.19,3.51-30.51,8.38c-2.22.61-3.78-1.06-4.08-2.02Z"/>
  <path class="cls-31" d="M505.67,593.29c-8.43,4.24-.37,20.53-8.24,27.99-7.61,7.21-34.48,9.52-35.58-1.52,2.91-8.19,4.44-13.2-2.31-21.14-8.14-9.58-10.4-25.39-2.1-35.32,7.07-8.45,17.3-10,27.86-14.27l-8.56-48.21c-8.17-46.02-28.21-53.42-43.49-85.91l-8.81-48.15c-3.09-16.89-14.83-31.51-10.44-49.35,19.84,1.77,37.26,8.69,53.48,19.41,29.32-12.13,57.39-21.38,88.2-27.41,7.67-17.31,16.59-32.36,31.82-44.81,14.65,15.61,26.09,32.18,31.53,52.1,17.3,20.73,29.43,43.58,39.56,68.42,26.81,65.75,50.96,144.38,18.55,209.49-4.31,8.66-8.35,17.37-7,27.63,1.94,14.68-1.04,25.76-7.21,39.07-4.47,9.65-22.68,18.54-29.47,8.49,2.51-33.57-22.94-41.23-30.35-72.83-4.58-1.06-8.73,3.99-11.36,6.17l-75.39-11.62c-4.22-.65-8.41.61-10.68,1.75Z"/>
  <path class="cls-27" d="M535,412.29c-4.02,4.67-6.96,10.56-10.74,11.59-7.18,1.95-13.76,2.68-17.74-4.23,6.06-.25,11.46.95,16.41-1.31,4.52-2.07,5.48-7.95,4.65-11.23-1.33-5.22-5.98-6.9-11.46-9l-4.41-1.68c-1.42-.54-3.68-3.88-1.4-5.82,6.27-5.33,15.94-7.82,24.3-6.69l-2.88,15.39c1.83,8.21,10.05,10.33,17.02,9.6,6.23-.65,10.25-6.79,17.04-11.96,1.53,16.58-17.81,19.71-30.78,15.34Z"/>
  <path class="cls-18" d="M494.77,387.1c-8.89,6.29-25.11-7.97-28.87,6.14-.59,2.23-1.26,3.58-2.1,4.29-1.11.92-3.84.75-4.6-.04-1.47-1.53-1.97-4.27-.84-7.14,2.91-7.4,9.65-10.66,16.19-11.5,7.73-.99,15.32,1.1,20.22,8.26Z"/>
  <path class="cls-40" d="M577.72,359.17c-2.02,3.41-10.73-5.22-20.48-3.58-8.63,1.45-10.32,14.47-15.06,12.25-1.74-.82-2.59-4.49-1.18-7.2,6.95-13.36,24.63-16.43,35.8-6.64,1.21,1.06,1.5,4.18.91,5.17Z"/>
  <rect class="cls-32" x="455.42" y="408.98" width="33.22" height="5.25" transform="translate(-23.05 28.03) rotate(-3.32)"/>
  <path class="cls-4" d="M492.89,418.36c-10.64,8.19-20.49,10.29-31.45,11.81,8.99-8.79,21.25-11.72,31.45-11.81Z"/>
  <path class="cls-7" d="M577.4,381.15c-1.63,1.21-4.39,1.76-5.43,1.33-.74-.31-.35-1.93-.27-2.76.11-1.15.58-1.83,2.47-2.93l24.08-13.99c.3.53,1.13,1.4,1.58,1.76l-22.43,16.6Z"/>
  <path class="cls-12" d="M604.87,395.05c1.96-.05,4.34,2.43,4.58,4.69l-31.76-.54v-3.52s27.17-.63,27.17-.63Z"/>
  <path class="cls-20" d="M605.12,381.3c-10.03,5.9-19.25,8.49-30.64,8.27,8.58-6.72,19.06-9.36,30.64-8.27Z"/>
  <rect class="cls-38" x="472.84" y="431.35" width="28.99" height="4.8" transform="translate(-165.07 434.82) rotate(-41.76)"/>
  <path class="cls-14" d="M652.7,493.18c12.05-6.34,17.92-21.14,23.75-19.18,1.99.67,2.32,3.49,1.01,5.93-17.89,33.21-56.72,27.84-58.07,30.86l-4.24,9.49-44.86,14.21c-5.9,1.87-17.77,5.61-21.98.38-9.36-11.63-10.4-26.81-17.29-39.73-7.72-14.48-12.46-32.58-3.33-47.66,9.12-15.07,27.66-18.83,44.09-17.27,19.46,1.84,33.85,12.81,39.13,32.35,19.91-9.06,20.68-26.25,24.62-30.7,10.33-11.69,9.3,31.49-25.98,38.81-17.05,3.53-31.99,8.98-29.71,20.73,2.47,12.69,44.44,16.77,72.88,1.8Z"/>
  <path class="cls-1" d="M606.65,513.43c-11.72,8.92-26.92,7.83-40.14,13.74l-22.03-48.95c5.18-3.83,11.02-5.11,15.94-3.44,11.05,3.75,6.68,22.77,20.86,29.42l25.37,9.24Z"/>
  <path class="cls-25" d="M551.44,523.14l-16.15-36.84c-.95-2.17-1.31-4.3-.74-5.74.46-1.16,3.88-2.97,4.79-.87l18.52,42.86c.71,1.65,1.22,4.38.61,5.38-.51.83-2.16,1.34-3.61,1.16-2.63-.34-2.02-2.74-3.42-5.94Z"/>
  <path class="cls-21" d="M568.54,461.8c-7.6-2.04-12.92,4.77-18.32,6.39l-4.56-6.3c-2.05-2.84-6.57-1.49-7.48.23-1.19,2.25-.37,6.29-4.63,8.91-6.48-9.79,1.05-24.01,12.55-29.64,15.42-7.55,34.03-4.48,47.4,6.2,4.34,3.47,10.65,14.05,5.18,16.72l-23.19,11.34-6.96-13.85Z"/>
  <circle class="cls-34" cx="584.9" cy="457.08" r="6.5"/>
  <circle class="cls-11" cx="558.89" cy="446.95" r="5.84"/>
</svg>