<?xml version="1.0" encoding="UTF-8"?>
<svg id="Layer_1" data-name="Layer 1" xmlns="http://www.w3.org/2000/svg" viewBox="0 0 1080 1080">
  <defs>
    <style>
      .cls-1 {
        fill: #f48d24;
      }

      .cls-2 {
        fill: #793813;
      }

      .cls-3 {
        fill: #6a301c;
      }

      .cls-4 {
        fill: #733312;
      }

      .cls-5 {
        fill: #8db851;
      }

      .cls-6 {
        fill: #c0a29a;
      }

      .cls-7 {
        fill: #f5efec;
      }

      .cls-8 {
        fill: #713316;
      }

      .cls-9 {
        fill: #823a15;
      }

      .cls-10 {
        fill: #975e3a;
      }

      .cls-11 {
        fill: #863e14;
      }

      .cls-12 {
        fill: #955b38;
      }

      .cls-13 {
        fill: #62341e;
      }

      .cls-14 {
        fill: #fefefd;
      }

      .cls-15 {
        fill: #7b3912;
      }

      .cls-16 {
        fill: #d8c5be;
      }

      .cls-17 {
        fill: #955e3a;
      }

      .cls-18 {
        fill: #894214;
      }

      .cls-19 {
        fill: #894115;
      }
    </style>
  </defs>
  <path class="cls-17" d="M881.54,398.38l-63.08,4.5-108.91.8-11.79-29.9c62.64-3.94,122.25-11.79,181.64-23.35l2.14,47.95Z"/>
  <path class="cls-13" d="M386.13,339.94c-2.52,1.76-4.49,2.5-7.59,2.91-14.8,1.94-31.26-.67-41.45-10.77-12-11.89-16.21-29.45-11.9-45.47,34.09.88,61.06,16.19,57.77,48.09-.32,3.11,1.33,4.86,3.17,5.24Z"/>
  <path class="cls-5" d="M372.77,327.1c-7.39-5.59-12.39-15.29-24.2-13.65,4,10.09,13.38,13.3,20.49,21.49-23.8,2.75-39.42-19.42-36.92-40.41,9.85,1.08,15.99,3.28,23.35,5.94,9.04,5.49,18.7,12.36,17.28,26.63Z"/>
  <path class="cls-3" d="M879.4,350.43l-9.3,5.14c-54.23,11.88-109.24,19.64-165.01,23.26,2.28,7.17,5.24,13.78,8.88,19.84,54.76.85,109.3-.82,163.61-5l3.95,4.69c.94,1.1,2.71,3.06,2.5,4.34-1.44,8.73-131.01,9.61-171.91,8.5,8.92,45.96,11.51,90.55,10.51,136.68l1.99,26.12c31.65,52.43,62.73,124.58,37.44,181.75-23.95.23-44.78-14.84-63.4-26.02l-106.79,20.05c-13.05,16.35-27.36,40.93-51.51,46.06-17.69-16.3-26.22-39.73-28.23-63.46-22.61-34.61-28.62-74.45-20.55-114.63-10.52-20.38-12.34-41.96-3.78-62.92-6.71-30.19-7.43-59.76-6.95-92.57-40.56,25.2-31.25,77.56-64.28,93.94-11.1,5.5-23.2,4.01-33.31-1.77-8.68-4.96-15.11-16.6-14.12-28.43,4.34-51.47,66.05-95.95,117.37-104.92l4.36-20.88c-13.06.31-27.79-5.95-40.99-1.47l-113.28,38.39c-7.11-4.8-11.35-12.32-12.76-20.03l67.81-28.05-104.07-18.06c-.1-9.2,2.84-17.67,8.41-23.84l90.48,12.51c-6.51-6.98-10.18-10.78-7.94-16.8.95-6.54,2.48-7.19,7.59-2.91,6.24-4.36,28.99,18.59,44.53,21.65,25.09,4.94,52,5.09,77.32,3.35,8.64-7.92,18.12-18.23,31.51-17.99,12.59.23,17.76,9.14,21.19,20.16l76.74-.74c3.88-10.36,9.41-21.49,24.24-19.32,10.76,1.58,20.5,7.21,27.68,17.78,47.77-.98,94.25-6.48,141.44-14.24l46.26-7.6c2.71-.45,4.52,1.76,3.98,3.17l-1.62,4.27Z"/>
  <path class="cls-1" d="M481.81,452.65c-48.28,27.21-40.69,69.69-62.86,91.26-7.28,7.09-18.1,9.23-27.56,4.97-21.79-9.82-13.19-46.06,12.07-72.53,21.75-22.79,47.33-39.04,80.14-45.83,1.17,7.14.36,14.75-1.79,22.14Z"/>
  <path class="cls-10" d="M335.87,419.42l72.29-27.61c1.94-.74,4.26-2.56,4.4-3.79.14-1.22-2.24-4.07-4.19-4.35l-44.88-6.59-64.69-10.94c-2.88-.49-2.16-5.26-.95-6.86,1.79-2.37,4.77-3.18,8.58-2.72l97.83,11.84-16.21-21.98,40.24,22.68,73.92,5.92c-1.39,5.26-4.08,12.03-8.13,16.51l-43.06-1.04-109.95,36.98c-1.61.05-5.26-3.55-5.18-8.05Z"/>
  <path class="cls-14" d="M640.69,599.96l-51.33,9.35-14.86-49.35c20.28,1.07,38.84-1.72,56.2-12.28l9.99,52.27Z"/>
  <path class="cls-12" d="M642.97,402.2l-84.23-5.29c-5.08-2.84-3.44-16.26.33-21l82.02.48c3.42,8.48,3.66,16.11,1.87,25.81Z"/>
  <path class="cls-6" d="M586.79,406.26l30.97.34c.91.44,1.39,1.26,1.4,2.16l-64.29-.93c10.43-8.14,21.82-1.69,31.92-1.58Z"/>
  <path class="cls-7" d="M629.22,541.01c-4.45,5.43-12.65,9.07-19.53,6.81-2.47-.81-3.23-7.14-2.59-9.21,6.92-1.46,13.89-2.95,22.12,2.4Z"/>
  <path class="cls-16" d="M586.04,553.38c-3.55.19-6.25-.7-6.52-1.52-.28-.87,3.63-5.19,8.43-3.82,1.87.54,2.75,5.09-1.91,5.34Z"/>
  <path class="cls-1" d="M588.05,641.44c5.54,5.47,8.92-6.97,14.95-7.18,3.7-.13,13.9,5.27,16.66,8.84,8.73,11.27-10.36,15.56-6.48,28.14,10.41-.15,24.1.05,32.31-7.43,6.03-5.49-13.8-7.28-17.38-16.89-1.94-5.2.7-8.54,4.66-13.16,5.69-6.63,11.9-8.54,22.3-2.63,1.82-11.06-20.75-4.98-21.23-22.64,6.28-1.39,10.88-2.23,15.56-5.64l-14.15-68.4c-9.66-4.02-18.34-3.27-30.18-2.77-3.05-20.23-19.86-35.79-40.53-36.02-2.31-.03-4.63,6.17-4.59,8.63-25.48,4.35-46.47,17.94-64.57,36.8-10.39-54.03-6.39-153.8,33.13-182.15,5.09-3.65,11.76-3.55,16.49-1.33,13.42,6.31-15.43,60.99,17.64,60.57l68.7-.87c12.23-.16,20.67-6.67,21.88-18.67,1.96-19.4-8.5-32.23-1.75-40.08,7.96-9.27,27.28,1.62,38.35,21.93,8.82,16.18,14.33,33.73,16.92,52.44,5.99,43.33,7.05,86,6.36,129.91-.13,8.31,1.75,14.92,6.12,21.39,28.86,42.67,53.33,113.54,36.81,162.82-20.8-3.55-37.37-13.34-52.59-26.22l-33.78,6.7-85.49,14.98c-8.55,18.42-22.67,34.17-41.24,44.1-13.69-16.07-18.17-34.78-20.64-55.08-20.57-31.95-29.52-68.76-22.3-106.6,1.2-6.28.21-12.11-2.36-17.9-8.93-20.11-7.62-44.51,6.81-61.98,23.22-28.12,69.21-42.75,84.96-25.6,19.78,21.53-52.06,28.07-57.68,63.45-.32,2.01,7.06,2.93,8.2.15,4.6-11.24,12.73-19.54,25.41-24.42l17,55.97c11.32,1.53,21.6.06,32.57-1.03,2.86,24.54-21.36,7.55-26.85,27.88Z"/>
  <path class="cls-9" d="M709.89,678.81c-15,21.85-46.58,11.68-47.68,3.84-1.52-10.75,26.46,16.6,41.62-7.66,1.48-2.38,3.61-2.45,4.71-1.81,1.78,1.04,2.88,3.4,1.35,5.62Z"/>
  <path class="cls-8" d="M557.13,702.2c-1.05-2.23,5.79-4.55,8.95-2.02,18.01,14.43,32.53-9.39,35.65-7.17,1.93,1.37,2.36,3.94.09,6.91-9.88,12.89-31.68,16.17-44.69,2.28Z"/>
  <path class="cls-2" d="M707.19,628.28c-12.43,8.56-25.3,10.46-39.8,9.87,11.63-7.41,24.84-10.14,39.8-9.87Z"/>
  <path class="cls-19" d="M579.53,656.48l-36.15,5.96c-1.29-1.16-1.58-2.6-1.63-3.2l36.16-7.14c2.04,1.1,1.9,3.41,1.62,4.38Z"/>
  <path class="cls-15" d="M579.56,645.86c-12.89,1.58-26.25.47-39.41-6.22,13.63-1.9,26.1-1.24,39.41,6.22Z"/>
  <path class="cls-18" d="M707.12,649.94c-13.04,2.01-24.84,2.63-38-2.86,13.18-3.27,24.46-2.97,38,2.86Z"/>
  <rect class="cls-11" x="546.95" y="668.47" width="36.53" height="6.06" transform="translate(-248.44 342.36) rotate(-27.89)"/>
  <rect class="cls-4" x="664.63" y="616.36" width="33.33" height="6.21" transform="translate(-212.22 396.92) rotate(-28.29)"/>
</svg>