<?xml version="1.0" encoding="UTF-8"?>
<svg id="Layer_1" data-name="Layer 1" xmlns="http://www.w3.org/2000/svg" viewBox="0 0 1080 1080">
  <defs>
    <style>
      .cls-1 {
        fill: #713111;
      }

      .cls-2 {
        fill: #cf9168;
      }

      .cls-3 {
        fill: #fbf1e0;
      }

      .cls-4 {
        fill: #6e3720;
      }

      .cls-5 {
        fill: #94b6c8;
      }

      .cls-6 {
        fill: #813813;
      }

      .cls-7 {
        fill: #7a4a34;
      }

      .cls-8 {
        fill: #f38e24;
      }

      .cls-9 {
        fill: #cc9465;
      }

      .cls-10 {
        fill: #7f3912;
      }

      .cls-11 {
        fill: #682d19;
      }

      .cls-12 {
        fill: #7f4c39;
      }

      .cls-13 {
        fill: #93bbd0;
      }

      .cls-14 {
        fill: #8cb4ca;
      }

      .cls-15 {
        fill: #712f16;
      }

      .cls-16 {
        fill: #6c3a2a;
      }

      .cls-17 {
        fill: #714332;
      }

      .cls-18 {
        fill: #fdf8f0;
      }

      .cls-19 {
        fill: #e9a354;
      }

      .cls-20 {
        fill: #f28c22;
      }

      .cls-21 {
        fill: #6a321e;
      }
    </style>
  </defs>
  <g transform="matrix(1.6,0,0,1.6,-324.00,-237.60)">

  <circle class="cls-4" cx="534.29" cy="331.25" r="1.34"/>
  <rect class="cls-16" x="369.15" y="551.83" width="49.4" height="5.16" transform="translate(-135.47 127.43) rotate(-15.72)"/>
  <path class="cls-17" d="M419.9,533.19c-9.16,2.15-28.53,1.32-31.82-.29-1.08-.53-.59-3.85.85-3.75,10.29.69,20.15-.85,30.97,4.04Z"/>
  <path class="cls-8" d="M704.16,637.22l-25.07.98-112.29,1.21-86.64,1.01c-1.77-1.17-3.46-2.37-5.05-3.62-15.02-.41-29.75-.91-42.72-9.83-4.35-2.99-9.06-6.42-7.73-12.4.98-4.44,18.16-23.95,22.15-27.74,23.82,12.82,54.35,12.6,66.44-15.04,4.96-5.46,11.2-9.75,18.71-12.87l16.8-14.48c5.32-.95,6.26-2.69,2.83-5.23,25.68-71.62-68.77-104.97-116.9-60.71-2.98,2.1-4.01.91-5.77-1.84-5.84-9.1-6.51-60.02,2.19-63.01,11.45-3.92,48.89,16.82,54.9,28.77,33.19-8.71,66.32-14.46,99.39-17.25,5-10.68,31.02-41.98,41.62-42.17,13.65-.25,28.39,51.61,30.43,64.29,21.87,40.71,33.3,88.7,41.26,133.42,3.68,16.38,6.95,32.87,8.28,49.64.09,1.08-.36,2.21-.84,3.41s-1.21,2.35-1.97,3.47Z"/>
  <path class="cls-15" d="M607.75,494.13c2.79.09,4.1,2.32,3.87,3.92-.72,5.1-16.93-3.47-33.57,7.59-1.01.67-3.08-.04-3.62-.57-.74-.71-1.82-2.45-.78-4.15,10.66-17.54,29.76-20.07,31.22-16.94,2.08,4.46-8.72,3.33-15.53,9.53l18.41.6Z"/>
  <path class="cls-1" d="M632.54,523.52c-12.59.94-23.5,4.84-35.57,1.79l35.99-6.15c1.89.34,2,4.18-.42,4.37Z"/>
  <path class="cls-6" d="M628.58,507.04c-11.7,2.09-20.64,9.61-32.74,8.45,9.75-7.46,21.13-8.88,31.88-12,1.92-.56,2.97,3.18.86,3.55Z"/>
  <path class="cls-10" d="M630.38,540.89l-28.07-3.63c-1.63-.21-2.88-1.17-2.86-2.25.01-.94,1.44-2.24,3.03-1.99l28.76,4.55c1.25.48,1.34,3.6-.85,3.32Z"/>
  <path class="cls-11" d="M704.16,637.22c-.79-19.99-4.87-39.12-9.33-59.15l-14.61-65.63c-5.15-23.15-15.23-43.06-25.69-64l-6.71-25.25c-3.78-14.21-9.59-27.77-20.92-37.43-17.55,10.61-29.38,25.51-39.76,41.85l-35.33,4.84c-22.63,3.1-44.08,6.35-66.45,12.78-14.14-16.11-32.31-25.39-52.91-29.31-6.94,20.02-6.38,40.95-.51,61.46,29.82-27.93,74.43-29.6,105.66-5.5,20.97,16.53,27.43,42.76,16.71,66.9,8.4,7.68,22.82,7.71,29.07-2.48,1.29-2.11,5.61-4.96,5.98-2.16.79,5.89-6.19,11.02-10.47,13.21-8.82,4.52-18.31.32-26.33-1.65-8.9,5.63-15.87,16.07-26.17,19.94-6,2.25-9.95,5.99-12.67,11.66-11.1,23.15-43.73,27.22-66.64,12.13l-20.1,27.04c2.23,5.4,7.39,8.73,12.75,11.32,22.94,11.07,41.35-.99,40.41,12.62-.79,1.35-2.42,2.93-3.79,2.85-1.51-.1-3.46-1.46-4.58-3-18.1.17-35.06-4.86-49.11-16.79-9.52,8.1-12.8,20.19-26.79,15.23-5.24-1.86-11.73-7.33-9.73-14.6,2.08-7.54,9.09-13.8,13.5-19.94,2.43-3.39-.97-6.73-.73-9.3,1.6-17.36,16.42-29.24,33.06-30.16,2.99-.17,3.9-4.01,4-5.66.15-2.39-1.44-3.95-3.38-5.98-17.85-18.69-20.41-46.74-6.18-68.9-7.36-24.65-9.21-50.66,1.54-74.32,12.35-.89,22.87,3.81,33.24,8.87,10,4.89,18.92,10.02,26.19,19.3,31.7-7.87,62.7-12.58,95.76-15.53,9.11-17.49,22.59-30.81,38.81-41.56,4.69-3.11,9.34-2.57,12.86,2.23,14.74,17.73,22.48,39.15,25.33,62.66,14.27,23.81,23.61,48.86,29.66,76.22l14.17,64.14c3.84,17.4,6.8,34.21,8.09,51.79.14,1.92-3.26,2.91-4.74,2.37-1.15-.42-2.18-2.16-3.16-3.12Z"/>
  <path class="cls-2" d="M477.49,575.36c11.16.69,20.94.74,31.56-2.57-4.38,11.26-15.06,17.14-24.93,19.29-12.11,2.64-23.22-.41-32.79-8.76,1.95-3.87,5.44-10.8,9.67-11.92l16.48,3.61c-3.66,1.86-6.03,2.17-7.25,4.43-1.27,2.37-.5,5.11,1.68,5.85,2.74.92,5.27.38,7.15-1.87,1.35-1.62.85-4.02-1.58-8.05Z"/>
  <path class="cls-20" d="M437.35,582.49c-.26,11.81-20.11,23.67-29.3,16.16-6.81-12.13,11.18-29,23.35-27.21,5.73.84,6.1,4.37,5.95,11.05Z"/>
  <path class="cls-13" d="M405.46,632.55c-1.66,2.25-6.03,1.65-8.05.4-9.43-5.84-1.24-15.37,9.66-25.36l17.9-1.39-19.51,26.36Z"/>
  <path class="cls-5" d="M444.65,578.28l-4.25-9.18c-1.02-2.2,0-4.3,1.49-5.32s3.27-1.1,5.43.19l6.51,3.89c-2.3,4.34-4.82,7.11-9.17,10.41Z"/>
  <path class="cls-14" d="M533.88,553.37c-26.89,22.04-65.31,20.91-91.45-.14-24.24-19.53-24.91-54.43-1.6-74.79,25.62-22.37,63-23.44,90.9-3.35,12.01,8.65,20.94,22.89,21.23,38.31.28,15-6.93,30.02-19.07,39.98Z"/>
  <path class="cls-21" d="M526.79,548.03c-23.14,19.03-56.43,18.39-78.75-.51-10.3-8.72-15.81-20.51-15.52-33.29.27-12.27,5.87-24.02,16.55-32.71,21.93-17.84,56.36-17.53,77.96.7,10.17,8.59,15.48,20.17,15.91,32,.45,12.67-5.15,24.77-16.15,33.81Z"/>
  <path class="cls-9" d="M505.2,553.36c-3.57.71-6.3,1.69-10.51,1.39,2.12-2.43,2.14-5.57.2-7s-5.67-1.86-7.82.08c-1.39,1.25-1.5,4.08-.69,7.35-18.33,3.14-17.13-10.52-29.9-8.17-.05-9.64,18.24-11.3,26.31-10.33,8.29.99,25.23,7.08,22.41,16.68Z"/>
  <path class="cls-19" d="M513.42,550.88l-4.3-.23c-13.65-15.46-36.29-18.92-53.61-7.45l-4.24-.91c-16.64-15.3-15.95-40.73,1.49-54.9,9.47-9.88,21.81-13.7,35.48-13.43,36.97.72,54.58,33.49,47.09,42.75-1.55,1.92-3.72,3.31-3.98,5.29-.2,1.48,3.04,3.94,2.71,5.45-2.85,9.77-11.88,18.54-20.65,23.42Z"/>
  <path class="cls-7" d="M513.42,550.88c-2.76,1.53-5.15,1.87-8.21,2.48-10.2-15.93-34.29-18.42-48.72-6.35-1.87.34-3.97-3.43-5.22-4.71,19.42-14.9,47.72-10.63,62.15,8.58Z"/>
  <path class="cls-12" d="M517.39,508.58c1.63,4.92-1.65,10.85-4.43,13.99-3.22,3.64-9.24,5.12-14.78,4.93-6.96-.24-12.53-4.82-14.95-9.99-2.79-5.94-1.13-13.64,4.3-17.93,10.01-7.93,25.78-3.35,29.86,9Z"/>
  <path class="cls-18" d="M473.75,487.58c-20.92,6.47-17.72,25.94-22.14,31.52-6.46,8.15-12.45-17.09,10.79-31.62,5.25-3.28,9.73-7.01,16.48-4.16-.96,1.89-2.82,3.54-5.12,4.26Z"/>
  <path class="cls-3" d="M486.19,495.23c.02,4.41-8.6,11.25-11.06,6.97-1.83-3.19,4.54-9.48,8.06-9.54,2.43-.04,3,1.48,3,2.57Z"/>

  </g>
</svg>