<?xml version="1.0" encoding="UTF-8"?>
<svg id="Layer_1" data-name="Layer 1" xmlns="http://www.w3.org/2000/svg" viewBox="0 0 1080 1080">
  <defs>
    <style>
      .cls-1 {
        fill: #6a3625;
      }

      .cls-2 {
        fill: #e6ad62;
      }

      .cls-3 {
        fill: #79340d;
      }

      .cls-4 {
        fill: #733822;
      }

      .cls-5 {
        fill: #653321;
      }

      .cls-6 {
        fill: #c5aea5;
      }

      .cls-7 {
        fill: #704636;
      }

      .cls-8 {
        fill: #8b3d11;
      }

      .cls-9 {
        fill: #7a3512;
      }

      .cls-10 {
        fill: #71361f;
      }

      .cls-11 {
        fill: #6c3422;
      }

      .cls-12 {
        fill: #f38c24;
      }

      .cls-13 {
        fill: #fbf9f9;
      }

      .cls-14 {
        fill: #663222;
      }

      .cls-15 {
        fill: #7f3b10;
      }

      .cls-16 {
        fill: #f9f5f2;
      }

      .cls-17 {
        fill: #6d2f19;
      }

      .cls-18 {
        fill: #bf7f54;
      }

      .cls-19 {
        fill: #7b3610;
      }

      .cls-20 {
        fill: #682f1b;
      }

      .cls-21 {
        fill: #683929;
      }

      .cls-22 {
        fill: #f38d24;
      }

      .cls-23 {
        fill: #f3932e;
      }

      .cls-24 {
        fill: #693422;
      }

      .cls-25 {
        fill: #733112;
      }

      .cls-26 {
        fill: #95bfd3;
      }

      .cls-27 {
        fill: #90bdd3;
      }

      .cls-28 {
        fill: #c38359;
      }

      .cls-29 {
        fill: #783117;
      }

      .cls-30 {
        fill: #7e3912;
      }
    </style>
  </defs>
  <path class="cls-24" d="M305.52,427.39c-.43,1.25-4.51,1.11-4.98.48-.7-.94-2.04-3.04-1.09-5.56,15.22-40.42,46.48-72.39,86.03-90.73,27.08-12.56,56.08-26.22,87.52-18.97-42.13,6.23-77.69,16.85-110.78,41.15-25.72,18.89-45.82,42.24-56.69,73.62Z"/>
  <path class="cls-1" d="M303.09,377.31c-1.06,2.74-1.7,4.42-2.5,5.02-1.72,1.28-4.51,1.08-5.08-.26-.8-1.87-.17-5.42,1.33-7.53,40.47-57,111.37-86.76,183.04-84.64-15.11,8.66-31.08,6.95-47.07,9.57-51.93,8.51-97.8,34.73-129.72,77.85Z"/>
  <path class="cls-21" d="M592.25,648.66c-18.79,25.05-85.04,48.38-113.83,36.27,19.93-1.56,35.34-2.86,53.03-8.29,21.44-6.59,38.55-19.19,60.8-27.98Z"/>
  <path class="cls-7" d="M487.14,705.08c-2.08-2.98-.26-5.26,2.85-5.69l40.98-5.74c1.73-.24,3.19.61,3.72,1.47,3.54,5.65-25.24,10.72-47.55,9.97Z"/>
  <path class="cls-14" d="M326.2,623.08c2.1.17,2.85,3.96,3.08,5.75l8.09,63.96c2.63,20.78-43.5,26.17-71.74,18.31l-17.65-68.86c-1.96-7.63,15.4-14.97,10.24-31.79,15.68-2.96,34.35-7.84,50.11-7.47,3.12,9.01,7.33,19.26,17.88,20.1Z"/>
  <path class="cls-27" d="M304.13,707.07c-12.1,1.7-20.77,1.16-31.37-.14l-10.53-44.22c9.05.6,24.59.24,31.42,8.39l10.48,35.98Z"/>
  <path class="cls-13" d="M297.75,663.16c-11.35-1.05-24.74-8.45-36.65-6.59-2.59-3.42-3.26-7.83-2.95-11.41,21.52.64,41.41-2.13,61.6-9.78,2.3,5.45,2.69,9.52,1.29,15.55-9.11-.34-15.51,7.34-23.28,12.23Z"/>
  <path class="cls-26" d="M329.17,698.56c-5.27,4.13-9.93,6.37-17.47,7.51l-8.7-30.29c-3.23-11.25,10.76-20.28,20.69-18.87l5.48,41.65Z"/>
  <path class="cls-16" d="M258.27,639.8c1.83-5.95,5.48-10.88,9.87-15.76l35.2-5.53c5.69-.89,10.82,6.19,11.92,11.56-18.59,5.99-35.51,10.13-56.99,9.73Z"/>
  <path class="cls-6" d="M300.82,612.98l-33.44,5.19-.17-3.73,36.13-5.24c-.48,1.45-1.38,2.4-2.52,3.77Z"/>
  <path class="cls-5" d="M390.13,655.5c-1.63,10.24-19.48,10.78-29.99,4.54-2.88-1.71-4.52-4.48-4.8-6.87-1-8.62,14.16-13.59,27.88-9.1,5.34,1.75,7.67,6.66,6.9,11.43Z"/>
  <rect class="cls-18" x="369.85" y="645.73" width="7.96" height="14.38" transform="translate(-287.7356 1011.2398) rotate(-88.6469)"/>
  <path class="cls-11" d="M438.5,719.52c-30.84,19.26-75.34,4.59-75.15-18.34.06-7.24,3.17-15.17,10.25-19.87,29.71-19.75,74.78-6.45,75.68,17.62.27,7.1-2.62,15.5-10.77,20.59Z"/>
  <path class="cls-28" d="M427.06,717.63c-16.24,6.33-34.34,4.98-48.68-4.07-8.98-5.67-9.06-19.11-1.04-25.77,22.17-18.42,62.04-8.58,62.99,11.1.4,8.16-3.79,15.05-13.27,18.75Z"/>
  <circle class="cls-20" cx="425.52" cy="706.36" r="5.01"/>
  <circle class="cls-10" cx="382.38" cy="697.52" r="4.55"/>
  <path class="cls-4" d="M405.46,713.54c-.5,2.77-3.41,3.33-5.1,3.39-1.89.07-5.68-1.64-5.22-4.06.57-2.99,3.46-3.39,5.13-3.57,2.1-.23,5.66,1.59,5.18,4.24Z"/>
  <path class="cls-17" d="M329.27,628.83c-6.05-.25-5.92-.85-3.08-5.75-4.79-14.03,2.5-27.69,17.17-36.1-42.53-27.76-54.48-70.45-27.98-112.23,3.56-5.61,7.12-8.94,8-17.02,1.76-16.26,7.28-43.72,23.43-52.33,20.52-1.5,34.79,25.05,45.7,36.98,25.21,8.17,52.9,5.65,79.12,17.24,16.37-14.61,35.01-24.36,56.42-26.9,7.44-.88,11.14,11.19,10.02,18.59l32.21-18.98c31.4-18.51,65.32-29.31,101.65-23.95,1.93-27.03-11.53-47.61-32.7-61.6-48.71-32.18-96.89-16.85-125.23-27.71-9.98-3.83-20.6-13.69-17.19-25.19,12.99-43.83,188.92-33.5,215.27,80.9,3.83,16.63-.12,32.35-4,48.81,47.04,29.75,38.13,74.41,56.31,88.73,6.56,5.17,15.99,10.32,18.74,19.1,6.19,19.81,1.93,41.8-9.59,58.49-5.77,8.37-15.42,11.59-24.71,8.59-16.82-5.42-11.5-25.4-18.79-37.04-12.92,3.06-24.76,1.07-37.98-.86-40.93,36.29-96.04,53.23-149.04,59.69-28.54,26.72-81.42,57.36-113.45,44.81-5.98-2.34-10.39-7.36-11.04-12.11-.82-6.07,1.96-11.6,7.24-15.05l29.4-19.23-56.18-8.39-34.41,16.62c-11.49,5.55-24.18,5.27-35.33,1.88Z"/>
  <path class="cls-12" d="M683.16,409.47c2.21-65.68-73.89-97.27-135.49-93.64-18.51,1.09-41.47-5.53-41.47-17.41-.01-22.49,85.93-33.93,150.87,11.48,35.47,24.81,57.16,66.36,41.86,106.86-5.02.19-14.91-3.22-15.76-7.3Z"/>
  <path class="cls-23" d="M385.46,607.01c-16.67,10.41-42.65,21.02-49.56,13.48-6.96-7.58,2.4-19.2,15.44-29.06l34.12,15.58Z"/>
  <path class="cls-22" d="M739,556.68c-6.8-7.02-61.27,9.37-72.47-35.34-.54-2.16-.67-3.97-1.32-4.8-7.22-9.26-18.9,13.13,17.72,40.79-36.67,28.85-80.88,46.6-127.66,52.06l-11.56-2.21c-24.63,24.91-52.5,44.36-87.22,51.96-8.81,1.93-23.29,3.77-27.78-4.99-7.58-14.83,38.65-20.91,59.15-57.48.84-1.49-4.46-3.96-6.06-2.97-5.96,3.69-9.41,13.9-18.21,17.1l-46.39-5.59c-34.41-4.15-66.07-18.83-91.78-44.71,11.02-4.95,22.31-1.74,32.34-10.33-12.83-1.72-22.95,3.88-34.95,5.45-17.49-23.61-14.79-54.96,1.98-78.65,13.72-19.38,5.14-41.86,26.08-63.61,7.52,5.13,14.94,9.09,19.58,15.49l17.54,24.19c29.95,1.99,58.72,5.58,87.11,15.85,14.57-14.94,31.59-23.92,51.85-28.5,6.54,19.1.96,37.32-1.82,56.52l2.14,32.05c.22,3.23,6.38,5.13,7.58,2.69,5.44-11.04-2.11-22.25-.27-33.16l6.02-35.72,30.26-20.05c40.69-26.96,82.6-38.87,127.11-15.09,23.76,12.69,38.62,35.38,43.76,61.6,3.39,17.33,13.39,29.89,29.48,38.38,16.25,32.35-9.04,72.53-20.97,62.15-9.73-8.47-3.44-24.99-11.26-33.08Z"/>
  <path class="cls-9" d="M473.7,520.16c7.06,12.98-13.36-4.43-16.17-4.95-12.85-2.4-22.84,13.22-21.54.38,10.18-10.69,30.13-9.38,37.71,4.57Z"/>
  <path class="cls-25" d="M372.74,516.75c-9.47-2.76-12.36-8.17-18.19-9.1-6.1-.97-10.69,3.35-17.97,5.88,1.2-10.32,9.87-13.24,17.98-12.38,7.55.8,17.51,4.47,18.18,15.61Z"/>
  <path class="cls-30" d="M476.98,539.54c-12.33,4.37-24.06,6.45-37.82,6.46,10.27-8.31,23.6-9.34,37.82-6.46Z"/>
  <rect class="cls-19" x="339.46" y="512.63" width="5.23" height="31.54" transform="translate(-280.37 622.16) rotate(-65.65)"/>
  <rect class="cls-3" x="453.82" y="539.13" width="5.4" height="31.6" transform="translate(-161.27 921.94) rotate(-81.27)"/>
  <path class="cls-8" d="M465.92,572.04c-8.71.47-19.61-3.43-27.27-11.99,10.35-.05,17.84,4.41,27.27,11.99Z"/>
  <path class="cls-15" d="M353.6,543.21c-9.6.27-19.26-.83-30.85-3.48,10.25-5.37,20.51-3.37,30.85,3.48Z"/>
  <path class="cls-29" d="M416.33,564.98c-10.41,9.94-22.52,10.05-33.1,15.99-10.08,5.66-19.33,7.7-27.32-2.66l10.48-11.93c1.27-1.44,3.21-3.11,3.34-4.55.3-3.33-12.61-9.73-7.29-12.98s19.5,14.68,28.38,3.68c6.24-7.73-.89-17.69-7.44-24.91,7.63-6.84,21.07-5.41,26.91.17,2.39,5.26-6.53,8.6-8.83,11.13-3.64,4-.37,10.69,2.24,13.77s7.98,7.83,13.13,3.89c3.16-2.42,8.17-11.34,13.23-6.84l-5.18,12.61,5.15,12.85c-3.94,5.73-12.15-.45-13.7-10.24Z"/>
  <path class="cls-2" d="M402.21,561.41l-31.96,14.39c5.6-12.68,18.61-20.28,31.96-14.39Z"/>
</svg>