<?xml version="1.0" encoding="UTF-8"?>
<svg id="Layer_1" data-name="Layer 1" xmlns="http://www.w3.org/2000/svg" viewBox="0 0 1080 1080">
  <defs>
    <style>
      .cls-1 {
        fill: #dbaf60;
      }

      .cls-2 {
        fill: #fad089;
      }

      .cls-3 {
        fill: #f9d18e;
      }

      .cls-4 {
        fill: #8ebada;
      }

      .cls-5 {
        fill: #d09b6f;
      }

      .cls-6 {
        fill: #f48d24;
      }

      .cls-7 {
        fill: #d38c4f;
      }

      .cls-8 {
        fill: #d58948;
      }

      .cls-9 {
        fill: #8d4213;
      }

      .cls-10 {
        fill: #face86;
      }

      .cls-11 {
        fill: #d68e50;
      }

      .cls-12 {
        fill: #f9ce86;
      }

      .cls-13 {
        fill: #773614;
      }

      .cls-14 {
        fill: #f9f6f2;
      }

      .cls-15 {
        fill: #f7f3f2;
      }

      .cls-16 {
        fill: #924211;
      }

      .cls-17 {
        fill: #6d321c;
      }

      .cls-18 {
        fill: #7b3713;
      }

      .cls-19 {
        fill: #f8cb7f;
      }

      .cls-20 {
        fill: #713d24;
      }

      .cls-21 {
        fill: #d48e50;
      }

      .cls-22 {
        fill: #863f11;
      }

      .cls-23 {
        fill: #d38c4e;
      }

      .cls-24 {
        fill: #cf8849;
      }

      .cls-25 {
        fill: #ca454b;
      }

      .cls-26 {
        fill: #f8d071;
      }

      .cls-27 {
        fill: #884013;
      }

      .cls-28 {
        fill: #d18647;
      }

      .cls-29 {
        fill: #843c12;
      }

      .cls-30 {
        fill: #834b32;
      }

      .cls-31 {
        fill: #f6c576;
      }

      .cls-32 {
        fill: #f4edeb;
      }

      .cls-33 {
        fill: #d18240;
      }

      .cls-34 {
        fill: #7a4229;
      }

      .cls-35 {
        fill: #d08747;
      }

      .cls-36 {
        fill: #fcfbfa;
      }

      .cls-37 {
        fill: #b67e58;
      }

      .cls-38 {
        fill: #fefefe;
      }

      .cls-39 {
        fill: #f9cf87;
      }

      .cls-40 {
        fill: #69321d;
      }

      .cls-41 {
        fill: #763e27;
      }

      .cls-42 {
        fill: #77341a;
      }

      .cls-43 {
        fill: #843f14;
      }

      .cls-44 {
        fill: #d58846;
      }

      .cls-45 {
        fill: #f9da74;
      }

      .cls-46 {
        fill: #69351f;
      }
    </style>
  </defs>
  <path class="cls-17" d="M717.04,638.77c18.89,5.64,42.39,19.07,42.54,33.87.23,22.92-34.94,36.52-61.4,43.04-99.01,24.43-226.89,23.73-324.97-4.66-13.46-3.9-25.87-8.95-36.43-17.35-11.62-9.24-13.57-23.9-3.23-34.91,9.19-9.78,21.58-15.16,35.24-18.73,3.09-12.59,6.18-24.67,6.86-37.75l-1.99-18.77c-9.06-9.13-9.36-21.48-3.49-32.79-2.78-11.33-.66-22.86,7.75-30.38,13.43-11.85,29.95-15.58,46.69-20.29,7.48-2.1,13.59-5.92,22.39-2.7l1.62-19.55c-25.64-1.64-48.2-12.42-68-29.1-16.53-2.14-29.44-12.31-32.35-26.84-3.6-16.79,3.74-32.08,19.03-39.59,19.97-9.81,44.51-4.21,57.36,14.12,6.59,9.39,6.04,20.26,2.58,31.27,6,2.61,11.59,3.7,19.06,2.41-12.25-41.17-24.89-93.55-6.88-130.48,1.73-3.54,4.79-6.58,7.16-7.44,6.01-2.2,33.65,12.88,43.46,28.11,28.56-5.25,55.25-9.03,83.95-9.07,11.03-17.09,27.5-29.87,46.77-35.34,14.04,18.34,17.13,38.76,17.2,59.99,7.55,18.14,14.62,35.53,16.73,55.54l18.32-13.63-.07-34.64c-.02-9.89,24.36-10.99,26.4-13.48,1.37-1.67,1.43-7.57-.92-8.35l-16.23-5.37c-4.9-1.62-7.18-3.43-7.16-7.6.02-4.81,3.13-9.46,8.87-7.63l34.36,10.97-.57,20.04c17.24,4.11,30.7,7.87,26.96,22.9l-16.32,65.51c-10.19,10.08-25.95,2.47-36.7,6.24l-33.12,22.11c1.39,17.71,2.08,32.75-2.13,50.99,12.59-5.54,24.87-2.76,30.91,9.47,10.39,2.97,19.48,9.06,24.87,17.96,6.5,8.56,2.07,17.23,1.56,26.37-.98,17.68.23,27.93,1.69,44.48.58,6.53,7.17,13.29,3.21,22.12-2.38,5.32-3.04,12.61-1.58,18.96Z"/>
  <path class="cls-38" d="M711.85,645.92c17.87,3.15,37.58,14.06,38.65,26.8,1.48,17.55-28.8,30.16-51.56,35.6-104.19,24.91-212.33,22.78-316.64-1.68-16.32-3.83-29.86-10.61-42.14-20.87-7.08-5.91-6.55-16.34-.22-22.51,9.14-8.91,19.96-15.85,32.61-17.12-.13,9.16-2.48,16.9.76,23.98,4.01,8.76,13.78,14.36,23.16,17.52,43.67,14.75,88.34,18.82,134.63,19.54,48.85.76,95.49-1.92,142.67-13.75,13.03-3.27,24.65-8.61,34.8-17.02,9.1-7.53,10.23-17.95,3.27-30.49Z"/>
  <path class="cls-44" d="M592.63,572.4c-1.35,1.23-2.74,2.38-4.28,3.28-1.47.86-2.91,1.64-4.41,1.82-28.26,3.41-58.17,2.11-86.37-1.47l-96.03-16.83c-10.42-3.36-20.12-9.34-23.85-20.09.43-18.29,22.85-26.27,43.96-31.38.07,10.48,6.62,16.42,13.09,22.89,11.51,11.5,24.62,15.66,41.01,11.75l21.43-5.11c8.92,10.5,20.89,12.82,33.8,16.08l46.17,11.66c6.07,1.53,10.47,4.38,15.47,7.38Z"/>
  <path class="cls-12" d="M707.75,666.08c-6.31,9.82-17.43,15.56-30.07,18.83-87.53,22.6-179.86,22.25-267.59.36-34.18-8.53-32.84-29.43-27.52-27.32,53.88,30.87,134.31,30.5,196.72,27.7,42.57-1.91,92.12-6.93,128.15-29.1,1.74,3.1,1.38,6.41.31,9.54Z"/>
  <path class="cls-10" d="M391.19,592.97c10.75,5.73,24.58,10.03,36.86,12.25,58.88,10.61,116.68,13.01,176.48,9.39,7.08,2.44,12.77,2.53,17.06.28.57.24,1.44.46,1.95.41l12.14-6.02c26.12-2.9,49.23-11.02,69.34-24.33l2.9.37c1.33,8.5-5.12,18.16-15.09,22.06-81.04,31.63-197.06,28.13-282.43,6.16-13.94-3.59-30.84-13.26-28.18-23.98,4.68-.09,6.49,2.65,8.99,3.43Z"/>
  <path class="cls-12" d="M702.03,638.82c1.35-.41,2.87-3.55,5.61-1.69-5.3,24.36-63.07,31.92-94.16,35.13-60.77,6.28-120.7,5.61-180.67-5.85-24.97-4.77-57.23-12.63-54.5-32.68l3.48-.69c14.74,12.55,34.45,16.34,53.16,19.7,86.25,15.48,185.15,18.47,267.07-13.92Z"/>
  <path class="cls-19" d="M710.17,618.89c-2.87,8.6-11.62,13.87-21.01,16.92-39.06,12.69-79.19,16.58-120.52,19.17-43.61,2.74-129.23-7.16-169.42-21.55-9.89-3.54-16.88-11-16.62-21.05,4.33.2,8.75,2.1,13.27,5.69,58.51,20.72,130.91,26.53,193.41,21.65,40.49-3.16,86.27-8.47,120.39-28.99,0,0,.16,2.72.49,8.17Z"/>
  <path class="cls-28" d="M710.17,618.89c.02-2.1.14-3.61-.95-5.23-7.35,7.02-16.32,12.19-27.18,14.93-94.04,23.71-168.45,20.41-262.63,1.65-14.2-2.83-26.4-8.97-36.81-17.86.03-1.17,1.03-4.87,1.79-4.36,15.23,10.21,30.8,14.53,47.98,17.72,79.52,14.73,160.59,16.53,238.74-3.96,14.37-3.77,26.7-8.84,38.27-17.78,3.41,5.36,2.48,9.83.78,14.9Z"/>
  <path class="cls-23" d="M707.75,666.08c.05-2.85.5-4.67-.68-7.71-5.79,6.91-13.68,10.64-22.52,13.65-30.4,10.36-60.59,14.59-93.17,16.86-63.39,4.41-125.96,1.4-186.76-15.55-9.42-2.63-18.01-8.1-22.05-15.39,63.79,25.23,139.61,27.74,207.29,23.04,38.5-2.67,84.63-8.65,117.65-26.73,2.7,3.54,2.7,7.98.23,11.82Z"/>
  <path class="cls-39" d="M598.36,593.63c.75,2.33,2.33,5.62,1.65,8.61l-68.84,4.77c-43.59-1.27-110.75-6.43-145.62-24.78-5.13-2.7-8.54-7.03-9.87-12.32-.67-2.98-.85-6.04.86-8.91,9.71,7.83,19.34,12.44,31.45,15.48,61.2,15.35,122.18,20.66,185.11,14.6l5.26,2.53Z"/>
  <path class="cls-19" d="M592.63,572.4c2.53,1.52,6.87,7.19,4.13,9.64-62.95,5.24-125.63-.77-186.77-15.34-17.47-4.16-32.66-12.15-32.29-27.58,9.23,9.15,20.09,15.75,33.15,17.95l82.86,13.98c33.09,5.59,65.72,4.53,98.93,1.34Z"/>
  <path class="cls-33" d="M705.9,547.38c-3.68.14-7.9,2.55-12.66,7.21-17.05,6.22-34.59,10.76-52.62,13.62l-3.88-3.58,7.65-18.86c17.66-3.08,28.45-15.1,39.81-29.62,16.6,5.17,27.67,18.27,21.71,31.23Z"/>
  <path class="cls-35" d="M598.36,593.63c-69.72,4.64-128.02,5.3-196.43-14.74-9.93-2.91-18.34-7.92-25.1-15-1.19,2.63-.87,4.64-1.15,6.02-2.14-3.89-2.14-8.59,1.02-12.97,7.13,6.52,15.27,10.99,24.95,13.71,57.64,16.18,136.93,25.27,195.77,16.56,1.58,1.62.58,5.33.94,6.42Z"/>
  <path class="cls-7" d="M702.03,638.82c-17.97,15.32-80.39,24.73-107.18,25.09l-83.07,1.1c-30.79.41-59.85-5.33-89.62-11.36-16.82-3.41-31.61-8.23-43.84-19.91,1.66-12.25,6.18,3.14,26.76,8.56,40.52,10.67,80.86,16.16,122.62,19.46l44.2.25,24.1-1.53c36.63-2.32,71.49-11.03,106.03-21.65Z"/>
  <path class="cls-21" d="M621.59,614.89c-.78,4.61-5.96,1.63-8.26,1.96-31.18,4.38-59.73,2.87-90.72,1.42-37.73-1.76-74.86-3.11-110.56-15.14-7.86-2.65-16.01-3.95-20.85-10.15,47.18,14.76,95.93,20.54,146.43,19.59l66.54-1.25c4.59-.09,12.06,7.63,17.43,3.57Z"/>
  <path class="cls-31" d="M705.9,547.38c-8.17,17.73-47.74,22.87-73.59,29.15-1.15-5.24,2.82-7.94,4.42-11.89l41.74-8.87c10.5-2.39,19.39-7.68,26.47-15.47,1.16,2.6.86,4.48.95,7.09Z"/>
  <path class="cls-3" d="M632.21,586.64l3.25-2.56c23.9-2.62,46.19-9.26,66.89-19.95l3.5.55c-.45,21.29-45.53,28.02-71.98,33.01-1.64-4.39-1.56-7.14-1.65-11.06Z"/>
  <path class="cls-11" d="M707.91,585.31c-6.73,6.99-14.52,12.8-24.65,16.22-19.91,6.71-39.71,11.57-59.72,13.77,4.18-1.57,7.49-7.82,10.84-10.82l50.39-12.34c14.43-3.53,21.9-14.75,23.14-6.82Z"/>
  <path class="cls-24" d="M705.84,564.69c-11.84,7.96-25.29,13.85-40.62,16.74l-33.01,5.21c-.05-2.26,1.15-4.23,3.58-4.77l35.04-7.8c12.66-2.82,24.17-6.98,34.26-14.81,1.33,2.2.78,3.72.75,5.43Z"/>
  <path class="cls-45" d="M613,607.85c-12.38-11.66-1.17-38.24-21.42-44.34l-33.52-10.1c13-4.57,24.08-5.19,31.3-16.01l31.87,2.93c6.74.62,12.99,3.41,15.66,10.22-23.43,25.14-8.08,44.31-13.21,55.07-1.3,2.74-6.86,5.84-10.7,2.22Z"/>
  <path class="cls-8" d="M580.4,501.57c-7.85,19.64-50.6,19.54-67.46,12.49-8.35-3.49-7.21-7.46-3.45-4.34.64.53-2.33,2.86-4.81,1.94-5.92-10.25,9.71-21.52,27.61-22.81,6.8,5.72,14.78,6.01,21.51-.21,9.76-.18,23.25,3.08,26.6,12.93Z"/>
  <path class="cls-26" d="M580.63,522.46c11.15,23.39-34.44,29.08-64.61,19.79-7.7-2.37-11.98-9.17-10.42-17.7,25.09,9.92,50.02,7.74,75.03-2.09Z"/>
  <path class="cls-36" d="M721,418.16c-12.93,4.21-27.18,3.4-40.2-4.25l.72-41.37c10.43,1.97,21.37,9.04,23.01,20.68-1.69,11.63,1.82,20.96,16.47,24.94Z"/>
  <path class="cls-2" d="M580.4,501.57c8.35,24.59-63.54,31.17-75.72,10.09.7.2,1.29-2.07.58-2.87-1.62-1.83,1.58-4.69,2.5-1.01,24.57,9.2,53.22,8.62,72.63-6.22Z"/>
  <path class="cls-14" d="M730.41,373.66c-8.97.91-15.28.7-21.31,8.04-9.59-15.05-22.97-14.51-26.55-17.85-1.59-1.49-.54-7.67,1.11-7.12,17.79,5.87,34.59,6.77,51.58,2.43-.45,4.35-1.72,11.84-4.83,14.5Z"/>
  <path class="cls-4" d="M723.83,409.74c-.57,2.57-8.33.48-10.15-1.44-5.54-5.85-5.79-20.3.57-24.69,4.28-2.95,10.74-4.59,15.74-1.89l-6.16,28.02Z"/>
  <path class="cls-37" d="M709.78,351.28c-.13,2.59-1.11,4.05-1.43,4.74-.63,1.34-4.45.4-4.22-1.84,1.18-11.65,3.33-23.53,1.82-36.2l-26.13-9.57c.39-.26,1.37-1.44,1.2-1.31,10.33.01,19.24,5.15,30.59,8l-1.83,36.18Z"/>
  <path class="cls-15" d="M738.81,348.5c-5.97,5.99-14.15,6.61-22.08,6.61l.02-15.95c7.87.78,14,2.74,22.06,9.34Z"/>
  <path class="cls-32" d="M696.85,354.6c-6.14-2.49-11.41-4.5-17.22-9.59,4.95-5.12,11.56-7.33,19.74-7.65l-2.52,17.24Z"/>
  <circle class="cls-1" cx="542.96" cy="482.26" r="4.53"/>
  <path class="cls-5" d="M412.85,433.63c-11.73,10.56-28.14,12.21-41.82,5.81-9.27-4.34-15.3-13.13-16.14-21.75-.98-10.04,2.25-21.78,11.41-27.42,13.31-8.19,31.36-7.58,43.54,1.3,6.87,5,11.08,12.01,11.81,18.21,1.06,9-1.4,17.19-8.8,23.85Z"/>
  <circle class="cls-20" cx="379.48" cy="431.56" r="4.85"/>
  <circle class="cls-30" cx="396.52" cy="394.73" r="4.73"/>
  <circle class="cls-40" cx="404.07" cy="426.1" r="5.11"/>
  <circle class="cls-34" cx="374.97" cy="393.77" r="4.89"/>
  <circle class="cls-41" cx="388.37" cy="413.57" r="4.67"/>
  <circle class="cls-46" cx="412.23" cy="408.06" r="4.83"/>
  <path class="cls-6" d="M588.86,505.46c.49-22.48-29.89-19.23-35.91-30.61-2.53-4.79-8.46-4.29-13.6-3.74-3.77.4-5.62,7.01-9.86,8.81-11.76,5-27.41,7.95-31.84,22.24l.37,27.34-29.63,7.56c-9.67,2.47-16.7-1.84-23.17-8.23-5.73-5.65-20.33-14.25-12.39-23.31,1.49-1.71,5.3-2.75,8.89-.91l15.44,7.9c-2.15-13.28-2.14-25.72.46-40.17-23.01-1.71-44.24-7.33-63.85-23.42,12.67-.82,20.68-9.71,30.21-13.74,9.83-2.29,21.84,5.78,32.32,1.71-11.23-46.66-30.24-95.14-7.22-137.84,15.7,5.27,27.2,15.33,36.92,28.79,31.47-6.57,61.71-9.29,93.6-10.9,9.8-13.82,20.47-25.62,36.07-33.77,11.01,16.04,14.63,34.5,14.38,54.01,8.9,19.49,15.84,38.93,16.18,60.57l-12.1,7.97c-1.7,1.12-1.52,2.82-1.54,3.65s1.51,3.05,2.69,2.67c19.17-6.16,25.87-19.03,39.54-25.59l-.24,29.96c-.02,2.67,4.38,4.48,7.64,5.84-9.2,9.73-20.17,16.79-32,23.35-1.94,2.67,1.32,8.29,1.15,10.54l-4.11,56.4c7.9-1.86,18.29-11.87,25.19-7.47,13.3,8.5-19.45,37.25-32.8,33.57-15.47-4.27-31.04-8.48-48.18-7.46-4.67-8.2-2.82-16.66-2.62-25.74Z"/>
  <path class="cls-13" d="M602.5,349.07c-9.25-1.41-18.07-6.58-26.09,1.53-1.52,1.54-6.95,2.13-7.39-.41,6.22-11.54,26.16-16.46,33.49-1.12Z"/>
  <path class="cls-18" d="M504.44,359.94c-12.98-7.93-20.3,5.43-25,4.51-.99-.2-2.19-3.83-.88-5.04,16.09-14.87,38.69-.58,29.89,1.57-.95.23-2.73-.26-4.01-1.04Z"/>
  <rect class="cls-43" x="581" y="364.16" width="25.52" height="5.17" transform="translate(-78.16 178.13) rotate(-16.02)"/>
  <path class="cls-9" d="M506.2,388.9c-11.42,5.01-21.13,6.67-31.71,5.7,10.23-5.34,20.86-8.21,31.71-5.7Z"/>
  <rect class="cls-29" x="580.75" y="376.19" width="30.16" height="4.31"/>
  <rect class="cls-27" x="486.45" y="366.43" width="4.66" height="26.68" transform="translate(58.93 825.14) rotate(-83.86)"/>
  <path class="cls-22" d="M506.96,399.39l-24.2,10.4c15.79-18.3,31.59-13.58,24.2-10.4Z"/>
  <path class="cls-16" d="M607.98,394.72c-10.56-.71-19.57-4.01-28.56-8.63,10.81-2.08,20.23,1.65,28.56,8.63Z"/>
  <path class="cls-42" d="M560.09,406.56c-7.99,10.31-25.67,6.09-31.87-3.11-5.73-8.49-11.03-8.78-12.14-11.3-3.07-6.92,9.6,1.64,18.98-2.33,3.14-1.33,8.2-7.43,4.37-10.73l-11.26-9.67c8.44-4.13,16.98-5.41,25.88-5.22,1.03,5.86-5.13,8.83-6.79,12.64-2.72,6.26,3.79,9.81,7.51,11.19,6.53,2.44,9.29-1.38,17.06-5.85-3.23,8.34-5.8,16.71-11.73,24.36Z"/>
  <path class="cls-25" d="M558.01,399.79c.48,9.08-18.5,9.82-19.46,4.33-1.25-7.15,19.09-11.47,19.46-4.33Z"/>
</svg>