<?xml version="1.0" encoding="UTF-8"?>
<svg id="Layer_1" data-name="Layer 1" xmlns="http://www.w3.org/2000/svg" viewBox="0 0 1080 1080">
  <defs>
    <style>
      .cls-1 {
        fill: #7d3811;
      }

      .cls-2 {
        fill: #c0875e;
      }

      .cls-3 {
        fill: #efcaa0;
      }

      .cls-4 {
        fill: #81331b;
      }

      .cls-5 {
        fill: #7b3810;
      }

      .cls-6 {
        fill: #974c17;
      }

      .cls-7 {
        fill: #faf6f3;
      }

      .cls-8 {
        fill: #b0754f;
      }

      .cls-9 {
        fill: #f0ebe2;
      }

      .cls-10 {
        fill: #ba805a;
      }

      .cls-11 {
        fill: #8e4012;
      }

      .cls-12 {
        fill: #80b1c6;
      }

      .cls-13 {
        fill: #f28d25;
      }

      .cls-14 {
        fill: #884012;
      }

      .cls-15 {
        fill: #ded1c9;
      }

      .cls-16 {
        fill: #bb8056;
      }

      .cls-17 {
        fill: #c0875d;
      }

      .cls-18 {
        fill: #682f1b;
      }

      .cls-19 {
        fill: #f38e25;
      }

      .cls-20 {
        fill: #6b331c;
      }

      .cls-21 {
        fill: #eac59d;
      }

      .cls-22 {
        fill: #edc89f;
      }

      .cls-23 {
        fill: #c2885d;
      }

      .cls-24 {
        fill: #754026;
      }

      .cls-25 {
        fill: #833c15;
      }

      .cls-26 {
        fill: #773312;
      }

      .cls-27 {
        fill: #e6ded6;
      }

      .cls-28 {
        fill: #d8b294;
      }
    </style>
  </defs>
  <path class="cls-18" d="M848.6,597.49c.93,3.2,3.42,4.64,7.49,4.31l38.29,1.21,12.73,23.21,1.61,41.28c15.69,3.28,34.15,5.27,44.28,19.33,5.96,8.27,3.93,26.54-2.76,33.28-7.01,7.06-16.91,7.9-26.19,12.49l16.21,71.23c1.7,7.49-10.9,10.64-16.36,8.87-5.87-1.9-9.37-5.65-12.12-12.72l-23.4-60.18-44.41,2.73-2.97,35.76c-.73,8.76-4.65,14.54-12.11,15.1-7.98.6-14.18-3.32-15.03-12.27l-3.66-38.59-45.6-2.72-25.49,67.3c-2.98,7.86-13.8,7.68-18.31,4.96-8.18-4.94-7.54-12.05-5.43-20.44l14.89-59.2-16.74-6.02c-9.23-3.32-14.4-9.89-16.93-20.02-86.98,30.84-181.08,27.01-264.47-12.66-87.98-41.86-147.34-119.44-188.42-206.41l-21.28-45.05c-1.91-4.05.2-8.23,3.63-8.61,9.41-1.05,15.15,32.05,27.56,44.42,32.48,32.37,74.31,54.51,118.31,67.32,22.91-6.87,44.42-8.06,66.69,1.6,22.15-17.86,47.42-25.45,75.13-28.91l38.59-4.83c-5.67-12.95-9.83-25.15-12.14-38.72-4.89-28.71,13.55-51.78,43.2-54.74,8.11-.81,18.81,3.48,27.23-.23,30.34-13.37,37.12-72.7,62.72-71.7,15.93.62,27.75,26.02,35.91,46.43,29.73,8.84,58.08,17.02,84.77,32.92,21.29-8.71,41.41-14.72,64.1-15.06,16.17-.24,5.81,37.29-3.34,66.37,24.59-15.22,49.28-31.02,68.98-53.7l15.44-31.02c2.59-1.73,7.72,3.82,6.99,6.14l-2.74,8.63c-24.17,76.14-45.57,127.48-94.86,188.91Z"/>
  <path class="cls-3" d="M772.82,652.64c-15.14,3.83-25.73,5.63-35.41,17.45l-21.15,5.39c-10.76,2.74-16.35,9.73-18.56,20.96-168.99,57.61-328.18-7.46-415.46-163.01,64.68,57.15,137.22,97.04,220.5,114.51,77.17,13.43,181.92,9.95,250.78-23.63l67.28-32.81,29.5-15.9c-15.86,23.79-33.74,42.42-55.4,59.6-6.32,5.01-13.08,15.15-22.06,17.43Z"/>
  <path class="cls-22" d="M876.12,529.22c-2.87-16.02-9.89-26.2-22.88-36.98l63.92-45.24c-6.19,32.15-22.62,55.91-41.04,82.22Z"/>
  <path class="cls-21" d="M363.11,553.54c-3.91,10.86-2.19,18.45,3.04,28.95-29.28-17.81-56.19-35.4-78.12-62.56l75.08,33.61Z"/>
  <path class="cls-7" d="M894.39,603.01l-46.96.14c-.96,11.1-9.64,15.48-14.18,22.97-5.44,8.96-1.06,22.26-.91,33.14-12.76,3.64-24.75-1.78-39.67-6.48l55.94-55.29c11.55,7.96,31.59-.42,45.78,5.51Z"/>
  <path class="cls-23" d="M920.06,706.61c-66.91,15.32-134.44,12.71-199.59-3.39-5.42-1.34-11.97-7.74-8.63-12.19,5.21-6.92,15.25-9.81,23.79-10.07,8.94,26.54,40.88,27.89,70.06,20.68,29.37-7.26,10.05-35.92,23.29-34.23,11.6,1.48,2.06,24.68,13.72,29.67,25.76,11.02,72.35,5.74,64.41-19.94,13.69.94,27.18,4.88,38.47,15.6-6.12,7.98-14.51,11.35-25.5,13.86Z"/>
  <path class="cls-9" d="M874.56,694.28c-.12-14.12,2.35-26.5-2.84-37.77-6.23-13.5-38.58-6.02-30.43-22.21,19.03,3.64,39.29,3.77,57.67-.51l-1.33,53.64c-7.21,4.61-15.55,6.44-23.08,6.85Z"/>
  <path class="cls-10" d="M944.15,708.71c-5.51,10.28-16.53,12.91-27.38,15.34-60.06,13.44-122.76,13.18-182.5-1.32-9.82-2.38-18.97-3.96-23.46-13.94,20.27,9.32,39.96,11.24,61.6,13.79,58.13,6.87,115.55,4.46,171.74-13.87Z"/>
  <path class="cls-12" d="M866,693.78c-6.67.82-18.17-1.04-20.29-7.43-3.5-10.56-2.04-21.35-2.59-33.88,7.44-1.34,18.73,2.47,21.79,10.86,3.39,9.27,2.01,19.35,1.08,30.46Z"/>
  <path class="cls-16" d="M927.2,802.29c-14.32-19.62-19.71-42-27.57-64.13,4.11-2.34,9.21-3.6,12.49-2.09,6.54,20.98,12.74,42.5,15.07,66.22Z"/>
  <path class="cls-2" d="M753.7,739.05c-8.86,22.76-13.04,43.87-25.95,63.65l12.15-66.63c5.11-.94,8.23-1.26,13.8,2.98Z"/>
  <path class="cls-27" d="M895.4,628.63c-17.29,3.73-32.42,4.08-50.38.36,4.94-11.97,16.16-10.06,27.04-9.95,8.97.09,18.39-3.11,23.33,9.59Z"/>
  <path class="cls-8" d="M833.1,743.45l-6.31,42.09c-6.43-14.19-5-27.64-7.13-41.56l13.44-.53Z"/>
  <rect class="cls-15" x="856.73" y="609.37" width="31.95" height="2.78"/>
  <path class="cls-17" d="M815.35,677.95c1.81,15.93-32.59,26.93-60.5,12.62-5.02-2.57-7.35-8.64-7.01-12.7,1.86-22,65.11-21.12,67.51.08Z"/>
  <circle class="cls-24" cx="782.17" cy="687.6" r="5.29"/>
  <circle class="cls-20" cx="759.98" cy="674.99" r="5"/>
  <path class="cls-13" d="M602.21,429.77c-31.43,36.18-6.89,73.98-40.99,78.97-9.07-23.68-17.32-52.96-2.16-67.86,11.46-11.26,27.59-13.84,43.15-11.11Z"/>
  <path class="cls-28" d="M415.93,609.28c-12.5-4.72-23.68-9.56-36.04-18.46,13.13,1.15,27.49,4.55,36.04,18.46Z"/>
  <path class="cls-19" d="M446.65,621.06c7.01-18.48,24.64-7.36,43.1-16.04,22.44-10.55,47.72-4.32,63.67,14.37,1.31,1.54,7.14,1.88,8.67,1.13,9.76-4.82-26.33-40.35-65.4-28.29-11.25,3.47-20.95,8.85-33.08,8.52-12.31-.33-22.12,4.67-29.93,15.2-19.45-37.3-51.68-29.64-58.98-45.18-2.18-4.64-2.02-13.44,3.5-16.31,13.51-7.02,49.87-6.45,58.07,8.52,43.76-42.91,92.61-30.89,136.55-46.74,13.56-4.89,19.33-14.44,19.82-28.38,1.21-34.29,20.11-63.75,49.91-79.82,6.79-19.04,13.97-36.74,30.11-50.43,15.81,9.46,20.92,27.15,25.84,44.38,34.38,7.59,66.08,17.99,95.09,36.39,21.23-7.59,39.43-16.24,62.41-17.97-.37,25.07-9.92,46.42-21.71,67.99-6.45,11.8-7.62,28.25-17.98,37.51-10.69,9.55-28.76,7.99-41.02,13.99l-4.88,2.39c-14.39,7.04,29.53,10.68,54.76-10.05,9.4-7.72,10.15-21.33,16.69-32.29,17.55,5.77,27.05,26.81,20.02,43.68-6.51,15.63-19.5,25.61-34.33,32.62l-62.15,29.4c-8.6,4.07-11.16,8.75-21.03,12.42-96.6,35.97-201.22,39.7-297.72,2.99Z"/>
  <path class="cls-4" d="M712.81,511.8l-22.85,2.26c-10.29,4.84-26.81,10.93-33.74-3.85-3.06-6.53-1.2-20.17-8.62-26.23-1.09-.89-1.21-5.51-.77-6.55.44-1.04,2.3-1.91,4.03-1.17,2.95,1.25,5.54,17.25,21.56,12.23,10.29-3.22,10.99-13.63,6.88-25.13,9.92-3.19,19.38,3.15,27.69,9.77-2.91,7.21-9.73,6.69-15.28,9-7.85,3.26-4.45,12.7-2.21,17.29,7.3,14.97,29.69.98,26.76,8.4-.75,1.89-.87,3.73-3.45,3.98Z"/>
  <path class="cls-25" d="M759.07,488.08c-6.51-13.45-17.24-12.8-30.86-13.76,12.8-14.56,31.03-3.08,37.01,9.53,1.03,2.18-.34,4.29-1.39,4.72-.83.34-2.1.82-4.75-.48Z"/>
  <path class="cls-26" d="M673.23,450.79c-5.17,2-7.06-15.65-33.37-8.36,7.33-14.45,28.22-9.02,34.69,2.62,1.74,3.13-.2,5.31-1.32,5.75Z"/>
  <path class="cls-6" d="M639.65,481.42c-13.48,3.58-24.92,3.53-38.94-1.24,12.86-5.75,26.11-4.07,38.94,1.24Z"/>
  <path class="cls-6" d="M641.95,474.22c-13.98.22-23.89-5.28-34.64-12.14,12.52-2.34,25.21,3.02,34.64,12.14Z"/>
  <path class="cls-14" d="M771.93,507.59c-1.57,3.02-3.65,4.02-4.71,4.05l-33.79-7.6c14.11-7.47,27.12-.24,38.51,3.55Z"/>
  <path class="cls-5" d="M759.12,525.12c-11.54-1.02-21.03-8.04-30.59-16.97,12.04.44,22.66,6.24,30.59,16.97Z"/>
  <rect class="cls-1" x="730.21" y="511.87" width="6.89" height="28.94" transform="translate(-156.32 678.73) rotate(-45.37)"/>
  <rect class="cls-11" x="628.81" y="442.59" width="6.22" height="29.29" transform="translate(-116.59 676.62) rotate(-52.22)"/>
</svg>